<svg aria-roledescription="er" role="graphics-document document" viewBox="0 0 851.3668823242188 634" style="max-width: 851.367px; background-color: white;" xmlns:xlink="http://www.w3.org/1999/xlink" xmlns="http://www.w3.org/2000/svg" width="100%" id="my-svg"><style>#my-svg{font-family:"trebuchet ms",verdana,arial,sans-serif;font-size:16px;fill:#333;}#my-svg .error-icon{fill:#552222;}#my-svg .error-text{fill:#552222;stroke:#552222;}#my-svg .edge-thickness-normal{stroke-width:2px;}#my-svg .edge-thickness-thick{stroke-width:3.5px;}#my-svg .edge-pattern-solid{stroke-dasharray:0;}#my-svg .edge-pattern-dashed{stroke-dasharray:3;}#my-svg .edge-pattern-dotted{stroke-dasharray:2;}#my-svg .marker{fill:#333333;stroke:#333333;}#my-svg .marker.cross{stroke:#333333;}#my-svg svg{font-family:"trebuchet ms",verdana,arial,sans-serif;font-size:16px;}#my-svg .entityBox{fill:#ECECFF;stroke:#9370DB;}#my-svg .attributeBoxOdd{fill:#ffffff;stroke:#9370DB;}#my-svg .attributeBoxEven{fill:#f2f2f2;stroke:#9370DB;}#my-svg .relationshipLabelBox{fill:hsl(80, 100%, 96.2745098039%);opacity:0.7;background-color:hsl(80, 100%, 96.2745098039%);}#my-svg .relationshipLabelBox rect{opacity:0.5;}#my-svg .relationshipLine{stroke:#333333;}#my-svg .entityTitleText{text-anchor:middle;font-size:18px;fill:#333;}#my-svg #MD_PARENT_START{fill:#f5f5f5!important;stroke:#333333!important;stroke-width:1;}#my-svg #MD_PARENT_END{fill:#f5f5f5!important;stroke:#333333!important;stroke-width:1;}#my-svg :root{--mermaid-font-family:"trebuchet ms",verdana,arial,sans-serif;}</style><g/><defs><marker orient="auto" markerHeight="240" markerWidth="190" refY="7" refX="0" id="MD_PARENT_START"><path d="M 18,7 L9,13 L1,7 L9,1 Z"/></marker></defs><defs><marker orient="auto" markerHeight="28" markerWidth="20" refY="7" refX="19" id="MD_PARENT_END"><path d="M 18,7 L9,13 L1,7 L9,1 Z"/></marker></defs><defs><marker orient="auto" markerHeight="18" markerWidth="18" refY="9" refX="0" id="ONLY_ONE_START"><path d="M9,0 L9,18 M15,0 L15,18" fill="none" stroke="gray"/></marker></defs><defs><marker orient="auto" markerHeight="18" markerWidth="18" refY="9" refX="18" id="ONLY_ONE_END"><path d="M3,0 L3,18 M9,0 L9,18" fill="none" stroke="gray"/></marker></defs><defs><marker orient="auto" markerHeight="18" markerWidth="30" refY="9" refX="0" id="ZERO_OR_ONE_START"><circle r="6" cy="9" cx="21" fill="white" stroke="gray"/><path d="M9,0 L9,18" fill="none" stroke="gray"/></marker></defs><defs><marker orient="auto" markerHeight="18" markerWidth="30" refY="9" refX="30" id="ZERO_OR_ONE_END"><circle r="6" cy="9" cx="9" fill="white" stroke="gray"/><path d="M21,0 L21,18" fill="none" stroke="gray"/></marker></defs><defs><marker orient="auto" markerHeight="36" markerWidth="45" refY="18" refX="18" id="ONE_OR_MORE_START"><path d="M0,18 Q 18,0 36,18 Q 18,36 0,18 M42,9 L42,27" fill="none" stroke="gray"/></marker></defs><defs><marker orient="auto" markerHeight="36" markerWidth="45" refY="18" refX="27" id="ONE_OR_MORE_END"><path d="M3,9 L3,27 M9,18 Q27,0 45,18 Q27,36 9,18" fill="none" stroke="gray"/></marker></defs><defs><marker orient="auto" markerHeight="36" markerWidth="57" refY="18" refX="18" id="ZERO_OR_MORE_START"><circle r="6" cy="18" cx="48" fill="white" stroke="gray"/><path d="M0,18 Q18,0 36,18 Q18,36 0,18" fill="none" stroke="gray"/></marker></defs><defs><marker orient="auto" markerHeight="36" markerWidth="57" refY="18" refX="39" id="ZERO_OR_MORE_END"><circle r="6" cy="18" cx="9" fill="white" stroke="gray"/><path d="M21,18 Q39,0 57,18 Q39,36 21,18" fill="none" stroke="gray"/></marker></defs><path style="stroke: gray; fill: none;" marker-start="url(#ONLY_ONE_START)" marker-end="url(#ZERO_OR_MORE_END)" d="M506.658447265625,70.9736269096224L552.44318262736,83.31135575801866C598.2279179890951,95.64908460641493,689.7973887125651,120.32454230320747,735.5821240743002,140.99560448493708C781.3668594360352,161.66666666666666,781.3668594360352,178.33333333333334,781.3668594360352,186.66666666666666L781.3668594360352,195" class="er relationshipLine"/><path style="stroke: gray; fill: none;" marker-start="url(#ONLY_ONE_START)" marker-end="url(#ZERO_OR_MORE_END)" d="M505.8679079328264,95L516.803343636649,103.33333333333333C527.7387793404715,111.66666666666667,549.6096507481167,128.33333333333334,560.5450864519391,146.75C571.4805221557617,165.16666666666666,571.4805221557617,185.33333333333334,571.4805221557617,195.41666666666666L571.4805221557617,205.5" class="er relationshipLine"/><path style="stroke: gray; fill: none;" marker-start="url(#ONLY_ONE_START)" marker-end="url(#ZERO_OR_MORE_END)" d="M407.4489865984236,95L396.513550894601,103.33333333333333C385.5781151907784,111.66666666666667,363.7072437831334,128.33333333333334,352.7718080793108,146.75C341.8363723754883,165.16666666666666,341.8363723754883,185.33333333333334,341.8363723754883,195.41666666666666L341.8363723754883,205.5" class="er relationshipLine"/><path style="stroke: gray; fill: none;" marker-start="url(#ONLY_ONE_START)" marker-end="url(#ZERO_OR_MORE_END)" d="M406.658447265625,70.57609980422563L359.22846603393555,82.98008317018802C311.7984848022461,95.38406653615043,216.9385223388672,120.1920332680752,169.50854110717773,144.42934996737094C122.07855987548828,168.66666666666666,122.07855987548828,192.33333333333334,122.07855987548828,204.16666666666666L122.07855987548828,216" class="er relationshipLine"/><path style="stroke: gray; fill: none;" marker-start="url(#ONLY_ONE_START)" marker-end="url(#ZERO_OR_MORE_END)" d="M172.07855987548828,264.54187862445104L219.50854110717773,279.2848988537092C266.9385223388672,294.02791908296734,361.7984848022461,323.5139595414837,422.42640567648004,346.59031310407516C483.05432655071394,369.6666666666667,509.4502058358028,386.3333333333333,522.6481454783474,394.6666666666667L535.8460851208918,403" class="er relationshipLine"/><path style="stroke: gray; fill: none;" marker-start="url(#ONLY_ONE_START)" marker-end="url(#ZERO_OR_MORE_END)" d="M122.07855987548828,282L122.07855987548828,293.8333333333333C122.07855987548828,305.6666666666667,122.07855987548828,329.3333333333333,122.07855987548828,349.5C122.07855987548828,369.6666666666667,122.07855987548828,386.3333333333333,122.07855987548828,394.6666666666667L122.07855987548828,403" class="er relationshipLine"/><path style="stroke: gray; fill: none;" marker-start="url(#ONLY_ONE_START)" marker-end="url(#ONLY_ONE_END)" d="M122.07855987548828,448L122.07855987548828,456.3333333333333C122.07855987548828,464.6666666666667,122.07855987548828,481.3333333333333,151.19539006551108,500.42183512881365C180.31222025553384,519.510336924294,238.54588063557944,541.0206738485881,267.66271082560223,551.7758423107351L296.779541015625,562.5310107728822" class="er relationshipLine"/><path style="stroke: gray; fill: none;" marker-start="url(#ONLY_ONE_START)" marker-end="url(#ONLY_ONE_END)" d="M571.4805221557617,448L571.4805221557617,456.3333333333333C571.4805221557617,464.6666666666667,571.4805221557617,481.3333333333333,542.3636919657389,500.42183512881365C513.2468617757162,519.510336924294,455.0132013956706,541.0206738485881,425.89637120564777,551.7758423107351L396.779541015625,562.5310107728822" class="er relationshipLine"/><path style="stroke: gray; fill: none;" marker-start="url(#ONLY_ONE_START)" marker-end="url(#ZERO_OR_MORE_END)" d="M341.8363723754883,292.5L341.8363723754883,302.5833333333333C341.8363723754883,312.6666666666667,341.8363723754883,332.8333333333333,316.57685369732735,351.25C291.3173350191664,369.6666666666667,240.7982976628446,386.3333333333333,215.53877898468366,394.6666666666667L190.27926030652276,403" class="er relationshipLine"/><path style="stroke: gray; fill: none;" marker-start="url(#ONLY_ONE_START)" marker-end="url(#ZERO_OR_MORE_END)" d="M571.4805221557617,292.5L571.4805221557617,302.5833333333333C571.4805221557617,312.6666666666667,571.4805221557617,332.8333333333333,571.4805221557617,351.25C571.4805221557617,369.6666666666667,571.4805221557617,386.3333333333333,571.4805221557617,394.6666666666667L571.4805221557617,403" class="er relationshipLine"/><path style="stroke: gray; fill: none;" marker-start="url(#ONLY_ONE_START)" marker-end="url(#ZERO_OR_MORE_END)" d="M781.3668594360352,303L781.3668594360352,311.3333333333333C781.3668594360352,319.6666666666667,781.3668594360352,336.3333333333333,757.2419930819807,353C733.1171267279263,369.6666666666667,684.8673940198174,386.3333333333333,660.7425276657631,394.6666666666667L636.6176613117086,403" class="er relationshipLine"/><g transform="translate(406.658447265625,20 )" id="entity-Container-bc34fb32-8a75-5b81-936b-92374bf40296"><rect height="75" width="100" y="0" x="0" class="er entityBox"/><text style="dominant-baseline: middle; text-anchor: middle; font-size: 12px;" transform="translate(50,37.5)" y="0" x="0" id="text-entity-Container-bc34fb32-8a75-5b81-936b-92374bf40296" class="er entityLabel">Container</text></g><g transform="translate(72.07855987548828,216 )" id="entity-Cluster-46db484d-219f-5f91-a853-505207a5f0fd"><rect height="66" width="100" y="0" x="0" class="er entityBox"/><text style="dominant-baseline: middle; text-anchor: middle; font-size: 12px;" transform="translate(50,12)" y="0" x="0" id="text-entity-Cluster-46db484d-219f-5f91-a853-505207a5f0fd" class="er entityLabel">Cluster</text><rect height="21" width="51.85728454589844" y="24" x="0" class="er attributeBoxOdd"/><text style="dominant-baseline: middle; font-size: 10.2px;" transform="translate(5,34.5)" y="0" x="0" id="text-entity-Cluster-46db484d-219f-5f91-a853-505207a5f0fd-attr-1-type" class="er entityLabel">string</text><rect height="21" width="48.14271545410156" y="24" x="51.85728454589844" class="er attributeBoxOdd"/><text style="dominant-baseline: middle; font-size: 10.2px;" transform="translate(56.85728454589844,34.5)" y="0" x="0" id="text-entity-Cluster-46db484d-219f-5f91-a853-505207a5f0fd-attr-1-name" class="er entityLabel">id</text><rect height="21" width="51.85728454589844" y="45" x="0" class="er attributeBoxEven"/><text style="dominant-baseline: middle; font-size: 10.2px;" transform="translate(5,55.5)" y="0" x="0" id="text-entity-Cluster-46db484d-219f-5f91-a853-505207a5f0fd-attr-2-type" class="er entityLabel">string</text><rect height="21" width="48.14271545410156" y="45" x="51.85728454589844" class="er attributeBoxEven"/><text style="dominant-baseline: middle; font-size: 10.2px;" transform="translate(56.85728454589844,55.5)" y="0" x="0" id="text-entity-Cluster-46db484d-219f-5f91-a853-505207a5f0fd-attr-2-name" class="er entityLabel">label</text></g><g transform="translate(20,403 )" id="entity-GroupRelationship-6b99449c-91fb-5c39-b66d-ec5d8cfd95c7"><rect height="45" width="204.15711975097656" y="0" x="0" class="er entityBox"/><text style="dominant-baseline: middle; text-anchor: middle; font-size: 12px;" transform="translate(102.07855987548828,12)" y="0" x="0" id="text-entity-GroupRelationship-6b99449c-91fb-5c39-b66d-ec5d8cfd95c7" class="er entityLabel">GroupRelationship</text><rect height="21" width="116.79985046386719" y="24" x="0" class="er attributeBoxOdd"/><text style="dominant-baseline: middle; font-size: 10.2px;" transform="translate(5,34.5)" y="0" x="0" id="text-entity-GroupRelationship-6b99449c-91fb-5c39-b66d-ec5d8cfd95c7-attr-1-type" class="er entityLabel">GroupRelationshipType</text><rect height="21" width="87.35726928710938" y="24" x="116.79985046386719" class="er attributeBoxOdd"/><text style="dominant-baseline: middle; font-size: 10.2px;" transform="translate(121.79985046386719,34.5)" y="0" x="0" id="text-entity-GroupRelationship-6b99449c-91fb-5c39-b66d-ec5d8cfd95c7-attr-1-name" class="er entityLabel">relationship_type</text></g><g transform="translate(296.779541015625,548 )" id="entity-NamedThing-74d4236d-0d4f-5a95-91ac-13667787e95e"><rect height="66" width="100" y="0" x="0" class="er entityBox"/><text style="dominant-baseline: middle; text-anchor: middle; font-size: 12px;" transform="translate(50,12)" y="0" x="0" id="text-entity-NamedThing-74d4236d-0d4f-5a95-91ac-13667787e95e" class="er entityLabel">NamedThing</text><rect height="21" width="51.85728454589844" y="24" x="0" class="er attributeBoxOdd"/><text style="dominant-baseline: middle; font-size: 10.2px;" transform="translate(5,34.5)" y="0" x="0" id="text-entity-NamedThing-74d4236d-0d4f-5a95-91ac-13667787e95e-attr-1-type" class="er entityLabel">string</text><rect height="21" width="48.14271545410156" y="24" x="51.85728454589844" class="er attributeBoxOdd"/><text style="dominant-baseline: middle; font-size: 10.2px;" transform="translate(56.85728454589844,34.5)" y="0" x="0" id="text-entity-NamedThing-74d4236d-0d4f-5a95-91ac-13667787e95e-attr-1-name" class="er entityLabel">id</text><rect height="21" width="51.85728454589844" y="45" x="0" class="er attributeBoxEven"/><text style="dominant-baseline: middle; font-size: 10.2px;" transform="translate(5,55.5)" y="0" x="0" id="text-entity-NamedThing-74d4236d-0d4f-5a95-91ac-13667787e95e-attr-2-type" class="er entityLabel">string</text><rect height="21" width="48.14271545410156" y="45" x="51.85728454589844" class="er attributeBoxEven"/><text style="dominant-baseline: middle; font-size: 10.2px;" transform="translate(56.85728454589844,55.5)" y="0" x="0" id="text-entity-NamedThing-74d4236d-0d4f-5a95-91ac-13667787e95e-attr-2-name" class="er entityLabel">label</text></g><g transform="translate(456.66758728027344,403 )" id="entity-HierarchicalRelationship-6d02073e-9cfc-54c7-842a-7a123fddd921"><rect height="45" width="229.62586975097656" y="0" x="0" class="er entityBox"/><text style="dominant-baseline: middle; text-anchor: middle; font-size: 12px;" transform="translate(114.81293487548828,12)" y="0" x="0" id="text-entity-HierarchicalRelationship-6d02073e-9cfc-54c7-842a-7a123fddd921" class="er entityLabel">HierarchicalRelationship</text><rect height="21" width="142.2686004638672" y="24" x="0" class="er attributeBoxOdd"/><text style="dominant-baseline: middle; font-size: 10.2px;" transform="translate(5,34.5)" y="0" x="0" id="text-entity-HierarchicalRelationship-6d02073e-9cfc-54c7-842a-7a123fddd921-attr-1-type" class="er entityLabel">HierarchicalRelationshipType</text><rect height="21" width="87.35726928710938" y="24" x="142.2686004638672" class="er attributeBoxOdd"/><text style="dominant-baseline: middle; font-size: 10.2px;" transform="translate(147.2686004638672,34.5)" y="0" x="0" id="text-entity-HierarchicalRelationship-6d02073e-9cfc-54c7-842a-7a123fddd921-attr-1-name" class="er entityLabel">relationship_type</text></g><g transform="translate(272.0785598754883,205.5 )" id="entity-Cell-f4fc4c41-4dbb-5d35-97bd-7aa6d4da3d05"><rect height="87" width="139.515625" y="0" x="0" class="er entityBox"/><text style="dominant-baseline: middle; text-anchor: middle; font-size: 12px;" transform="translate(69.7578125,12)" y="0" x="0" id="text-entity-Cell-f4fc4c41-4dbb-5d35-97bd-7aa6d4da3d05" class="er entityLabel">Cell</text><rect height="21" width="69.46875" y="24" x="0" class="er attributeBoxOdd"/><text style="dominant-baseline: middle; font-size: 10.2px;" transform="translate(5,34.5)" y="0" x="0" id="text-entity-Cell-f4fc4c41-4dbb-5d35-97bd-7aa6d4da3d05-attr-1-type" class="er entityLabel">BroadRegion</text><rect height="21" width="70.046875" y="24" x="69.46875" class="er attributeBoxOdd"/><text style="dominant-baseline: middle; font-size: 10.2px;" transform="translate(74.46875,34.5)" y="0" x="0" id="text-entity-Cell-f4fc4c41-4dbb-5d35-97bd-7aa6d4da3d05-attr-1-name" class="er entityLabel">broad_region</text><rect height="21" width="69.46875" y="45" x="0" class="er attributeBoxEven"/><text style="dominant-baseline: middle; font-size: 10.2px;" transform="translate(5,55.5)" y="0" x="0" id="text-entity-Cell-f4fc4c41-4dbb-5d35-97bd-7aa6d4da3d05-attr-2-type" class="er entityLabel">string</text><rect height="21" width="70.046875" y="45" x="69.46875" class="er attributeBoxEven"/><text style="dominant-baseline: middle; font-size: 10.2px;" transform="translate(74.46875,55.5)" y="0" x="0" id="text-entity-Cell-f4fc4c41-4dbb-5d35-97bd-7aa6d4da3d05-attr-2-name" class="er entityLabel">id</text><rect height="21" width="69.46875" y="66" x="0" class="er attributeBoxOdd"/><text style="dominant-baseline: middle; font-size: 10.2px;" transform="translate(5,76.5)" y="0" x="0" id="text-entity-Cell-f4fc4c41-4dbb-5d35-97bd-7aa6d4da3d05-attr-3-type" class="er entityLabel">string</text><rect height="21" width="70.046875" y="66" x="69.46875" class="er attributeBoxOdd"/><text style="dominant-baseline: middle; font-size: 10.2px;" transform="translate(74.46875,76.5)" y="0" x="0" id="text-entity-Cell-f4fc4c41-4dbb-5d35-97bd-7aa6d4da3d05-attr-3-name" class="er entityLabel">label</text></g><g transform="translate(511.5941848754883,205.5 )" id="entity-CellClass-3732a84a-15e5-5f6d-b5df-603e740f7d2d"><rect height="87" width="119.77267456054688" y="0" x="0" class="er entityBox"/><text style="dominant-baseline: middle; text-anchor: middle; font-size: 12px;" transform="translate(59.88633728027344,12)" y="0" x="0" id="text-entity-CellClass-3732a84a-15e5-5f6d-b5df-603e740f7d2d" class="er entityLabel">CellClass</text><rect height="21" width="69.79278564453125" y="24" x="0" class="er attributeBoxOdd"/><text style="dominant-baseline: middle; font-size: 10.2px;" transform="translate(5,34.5)" y="0" x="0" id="text-entity-CellClass-3732a84a-15e5-5f6d-b5df-603e740f7d2d-attr-1-type" class="er entityLabel">CellCategory</text><rect height="21" width="49.979888916015625" y="24" x="69.79278564453125" class="er attributeBoxOdd"/><text style="dominant-baseline: middle; font-size: 10.2px;" transform="translate(74.79278564453125,34.5)" y="0" x="0" id="text-entity-CellClass-3732a84a-15e5-5f6d-b5df-603e740f7d2d-attr-1-name" class="er entityLabel">category</text><rect height="21" width="69.79278564453125" y="45" x="0" class="er attributeBoxEven"/><text style="dominant-baseline: middle; font-size: 10.2px;" transform="translate(5,55.5)" y="0" x="0" id="text-entity-CellClass-3732a84a-15e5-5f6d-b5df-603e740f7d2d-attr-2-type" class="er entityLabel">string</text><rect height="21" width="49.979888916015625" y="45" x="69.79278564453125" class="er attributeBoxEven"/><text style="dominant-baseline: middle; font-size: 10.2px;" transform="translate(74.79278564453125,55.5)" y="0" x="0" id="text-entity-CellClass-3732a84a-15e5-5f6d-b5df-603e740f7d2d-attr-2-name" class="er entityLabel">id</text><rect height="21" width="69.79278564453125" y="66" x="0" class="er attributeBoxOdd"/><text style="dominant-baseline: middle; font-size: 10.2px;" transform="translate(5,76.5)" y="0" x="0" id="text-entity-CellClass-3732a84a-15e5-5f6d-b5df-603e740f7d2d-attr-3-type" class="er entityLabel">string</text><rect height="21" width="49.979888916015625" y="66" x="69.79278564453125" class="er attributeBoxOdd"/><text style="dominant-baseline: middle; font-size: 10.2px;" transform="translate(74.79278564453125,76.5)" y="0" x="0" id="text-entity-CellClass-3732a84a-15e5-5f6d-b5df-603e740f7d2d-attr-3-name" class="er entityLabel">label</text></g><g transform="translate(731.3668594360352,195 )" id="entity-CellSubclass-1aba7325-b6a6-529e-8c87-f537fbfd0979"><rect height="108" width="100" y="0" x="0" class="er entityBox"/><text style="dominant-baseline: middle; text-anchor: middle; font-size: 12px;" transform="translate(50,12)" y="0" x="0" id="text-entity-CellSubclass-1aba7325-b6a6-529e-8c87-f537fbfd0979" class="er entityLabel">CellSubclass</text><rect height="21" width="51.007667541503906" y="24" x="0" class="er attributeBoxOdd"/><text style="dominant-baseline: middle; font-size: 10.2px;" transform="translate(5,34.5)" y="0" x="0" id="text-entity-CellSubclass-1aba7325-b6a6-529e-8c87-f537fbfd0979-attr-1-type" class="er entityLabel">Division</text><rect height="21" width="48.992332458496094" y="24" x="51.007667541503906" class="er attributeBoxOdd"/><text style="dominant-baseline: middle; font-size: 10.2px;" transform="translate(56.007667541503906,34.5)" y="0" x="0" id="text-entity-CellSubclass-1aba7325-b6a6-529e-8c87-f537fbfd0979-attr-1-name" class="er entityLabel">division</text><rect height="21" width="51.007667541503906" y="45" x="0" class="er attributeBoxEven"/><text style="dominant-baseline: middle; font-size: 10.2px;" transform="translate(5,55.5)" y="0" x="0" id="text-entity-CellSubclass-1aba7325-b6a6-529e-8c87-f537fbfd0979-attr-2-type" class="er entityLabel">NTType</text><rect height="21" width="48.992332458496094" y="45" x="51.007667541503906" class="er attributeBoxEven"/><text style="dominant-baseline: middle; font-size: 10.2px;" transform="translate(56.007667541503906,55.5)" y="0" x="0" id="text-entity-CellSubclass-1aba7325-b6a6-529e-8c87-f537fbfd0979-attr-2-name" class="er entityLabel">nt_type</text><rect height="21" width="51.007667541503906" y="66" x="0" class="er attributeBoxOdd"/><text style="dominant-baseline: middle; font-size: 10.2px;" transform="translate(5,76.5)" y="0" x="0" id="text-entity-CellSubclass-1aba7325-b6a6-529e-8c87-f537fbfd0979-attr-3-type" class="er entityLabel">string</text><rect height="21" width="48.992332458496094" y="66" x="51.007667541503906" class="er attributeBoxOdd"/><text style="dominant-baseline: middle; font-size: 10.2px;" transform="translate(56.007667541503906,76.5)" y="0" x="0" id="text-entity-CellSubclass-1aba7325-b6a6-529e-8c87-f537fbfd0979-attr-3-name" class="er entityLabel">id</text><rect height="21" width="51.007667541503906" y="87" x="0" class="er attributeBoxEven"/><text style="dominant-baseline: middle; font-size: 10.2px;" transform="translate(5,97.5)" y="0" x="0" id="text-entity-CellSubclass-1aba7325-b6a6-529e-8c87-f537fbfd0979-attr-4-type" class="er entityLabel">string</text><rect height="21" width="48.992332458496094" y="87" x="51.007667541503906" class="er attributeBoxEven"/><text style="dominant-baseline: middle; font-size: 10.2px;" transform="translate(56.007667541503906,97.5)" y="0" x="0" id="text-entity-CellSubclass-1aba7325-b6a6-529e-8c87-f537fbfd0979-attr-4-name" class="er entityLabel">label</text></g><rect height="14" width="59.375" y="106.59967803955078" x="629.3328247070312" class="er relationshipLabelBox"/><text style="text-anchor: middle; dominant-baseline: middle; font-size: 12px;" y="113.59967803955078" x="659.0203247070312" id="rel1" class="er relationshipLabel">subclasses</text><rect height="14" width="40.015625" y="133.45538330078125" x="536.3486938476562" class="er relationshipLabelBox"/><text style="text-anchor: middle; dominant-baseline: middle; font-size: 12px;" y="140.45538330078125" x="556.3565063476562" id="rel2" class="er relationshipLabel">classes</text><rect height="14" width="24.015625" y="133.45541381835938" x="344.9526062011719" class="er relationshipLabelBox"/><text style="text-anchor: middle; dominant-baseline: middle; font-size: 12px;" y="140.45541381835938" x="356.9604187011719" id="rel3" class="er relationshipLabel">cells</text><rect height="14" width="41.34375" y="109.2220687866211" x="221.45428466796875" class="er relationshipLabelBox"/><text style="text-anchor: middle; dominant-baseline: middle; font-size: 12px;" y="116.2220687866211" x="242.12615966796875" id="rel4" class="er relationshipLabel">clusters</text><rect height="14" width="161.4375" y="316.7425842285156" x="277.3872375488281" class="er relationshipLabelBox"/><text style="text-anchor: middle; dominant-baseline: middle; font-size: 12px;" y="323.7425842285156" x="358.1059875488281" id="rel5" class="er relationshipLabel">has_hierarchical_relationships</text><rect height="14" width="130.765625" y="335.5" x="56.69574737548828" class="er relationshipLabelBox"/><text style="text-anchor: middle; dominant-baseline: middle; font-size: 12px;" y="342.5" x="122.07855987548828" id="rel6" class="er relationshipLabel">has_group_relationships</text><rect height="14" width="53.69921875" y="515.2383422851562" x="166.34890747070312" class="er relationshipLabelBox"/><text style="text-anchor: middle; dominant-baseline: middle; font-size: 12px;" y="522.2383422851562" x="193.19851684570312" id="rel7" class="er relationshipLabel">related_to</text><rect height="14" width="53.69921875" y="515.23828125" x="473.5110168457031" class="er relationshipLabelBox"/><text style="text-anchor: middle; dominant-baseline: middle; font-size: 12px;" y="522.23828125" x="500.3606262207031" id="rel8" class="er relationshipLabel">related_to</text><rect height="14" width="130.765625" y="361.153564453125" x="220.89059448242188" class="er relationshipLabelBox"/><text style="text-anchor: middle; dominant-baseline: middle; font-size: 12px;" y="368.153564453125" x="286.2734069824219" id="rel9" class="er relationshipLabel">has_group_relationships</text><rect height="14" width="161.4375" y="340.75" x="490.76177978515625" class="er relationshipLabelBox"/><text style="text-anchor: middle; dominant-baseline: middle; font-size: 12px;" y="347.75" x="571.4805297851562" id="rel10" class="er relationshipLabel">has_hierarchical_relationships</text><rect height="14" width="161.4375" y="362.9714050292969" x="644.77734375" class="er relationshipLabelBox"/><text style="text-anchor: middle; dominant-baseline: middle; font-size: 12px;" y="369.9714050292969" x="725.49609375" id="rel11" class="er relationshipLabel">has_hierarchical_relationships</text></svg>